<svg xmlns="http://www.w3.org/2000/svg" viewBox="0 0 512 512" width="200" height="200">
  <defs>
    <linearGradient id="madera" x1="0%" y1="0%" x2="100%" y2="100%">
      <stop offset="0%" stop-color="#5c3a21" />
      <stop offset="50%" stop-color="#4a2e1b" />
      <stop offset="100%" stop-color="#2b1a0f" />
    </linearGradient>
    <linearGradient id="metal" x1="0%" y1="0%" x2="0%" y2="100%">
      <stop offset="0%" stop-color="#ffffff" />
      <stop offset="30%" stop-color="#cbd5e1" />
      <stop offset="70%" stop-color="#94a3b8" />
      <stop offset="100%" stop-color="#475569" />
    </linearGradient>
  </defs>
  
  <path d="M120,440 L150,80 L362,80 L392,440 Z" fill="url(#madera)" rx="15" stroke="#1a100a" stroke-width="3"/>
  
  <circle cx="256" cy="280" r="45" fill="#1a100a" stroke="#8b5a2b" stroke-width="4"/>
  <circle cx="256" cy="280" r="55" fill="none" stroke="#8b5a2b" stroke-width="1" stroke-dasharray="5,5"/>
  
  <rect x="145" y="110" width="222" height="15" fill="#8b5a2b" rx="4"/>
  <rect x="140" y="135" width="232" height="10" fill="url(#metal)" rx="2"/>
  
  <rect x="160" y="70" width="10" height="130" fill="url(#metal)" rx="2"/>
  <rect x="175" y="70" width="10" height="145" fill="url(#metal)" rx="2"/>
  <rect x="190" y="70" width="10" height="160" fill="url(#metal)" rx="2"/>
  <rect x="205" y="70" width="10" height="175" fill="url(#metal)" rx="2"/>
  <rect x="220" y="70" width="10" height="190" fill="url(#metal)" rx="2"/>
  <rect x="235" y="70" width="10" height="205" fill="url(#metal)" rx="2"/>
  
  <rect x="251" y="70" width="10" height="220" fill="url(#metal)" rx="2" stroke="#ffffff" stroke-width="0.5"/>
  
  <rect x="267" y="70" width="10" height="205" fill="url(#metal)" rx="2"/>
  <rect x="282" y="70" width="10" height="190" fill="url(#metal)" rx="2"/>
  <rect x="297" y="70" width="10" height="175" fill="url(#metal)" rx="2"/>
  <rect x="312" y="70" width="10" height="160" fill="url(#metal)" rx="2"/>
  <rect x="327" y="70" width="10" height="145" fill="url(#metal)" rx="2"/>
  <rect x="342" y="70" width="10" height="130" fill="url(#metal)" rx="2"/>
  
  <rect x="145" y="210" width="222" height="6" fill="#1a100a" opacity="0.4"/>
</svg>
